<svg width="900" height="650" viewBox="0 0 900 650" fill="none" xmlns="http://www.w3.org/2000/svg">
  <defs>
    <linearGradient id="bg" x1="0" y1="0" x2="900" y2="650" gradientUnits="userSpaceOnUse">
      <stop stop-color="#0f172a" />
      <stop offset="1" stop-color="#111827" />
    </linearGradient>
    <linearGradient id="accent" x1="0" y1="0" x2="900" y2="0" gradientUnits="userSpaceOnUse">
      <stop stop-color="#38bdf8" />
      <stop offset="1" stop-color="#a855f7" />
    </linearGradient>
  </defs>
  <rect width="900" height="650" rx="36" fill="url(#bg)" />
  <circle cx="180" cy="160" r="96" fill="rgba(56,189,248,0.15)" />
  <circle cx="745" cy="130" r="56" fill="rgba(168,85,247,0.15)" />
  <rect x="124" y="300" width="650" height="290" rx="36" fill="#111827" stroke="rgba(148,163,184,0.18)" stroke-width="2" />
  <rect x="170" y="360" width="520" height="24" rx="12" fill="rgba(255,255,255,0.16)" />
  <rect x="170" y="410" width="480" height="24" rx="12" fill="rgba(255,255,255,0.16)" />
  <rect x="170" y="460" width="380" height="24" rx="12" fill="rgba(255,255,255,0.16)" />
  <rect x="170" y="510" width="300" height="24" rx="12" fill="rgba(255,255,255,0.16)" />
  <path d="M160 280H740V320H160V280Z" fill="rgba(56,189,248,0.22)" />
  <rect x="580" y="120" width="220" height="140" rx="24" fill="rgba(255,255,255,0.08)" stroke="rgba(148,163,184,0.22)" stroke-width="2" />
  <path d="M620 170C620 150 640 130 660 130H720C740 130 760 150 760 170V210C760 230 740 250 720 250H660C640 250 620 230 620 210V170Z" fill="url(#accent)" opacity="0.88" />
  <path d="M530 100C530 82 546 66 564 66H650C668 66 684 82 684 100V180C684 198 668 214 650 214H564C546 214 530 198 530 180V100Z" stroke="rgba(56,189,248,0.55)" stroke-width="6" fill="none" />
  <text x="180" y="220" fill="#cbd5e1" font-family="Inter, system-ui, sans-serif" font-size="34" font-weight="600">Cloud + Web</text>
  <text x="180" y="270" fill="#94a3b8" font-family="Inter, system-ui, sans-serif" font-size="22">Diseño, desarrollo y despliegue</text>
</svg>
